<svg xmlns="http://www.w3.org/2000/svg" id="a" viewBox="0 0 217.53 44"><defs><style>.b{fill:#111;}.b,.c{fill-rule:evenodd;}.c{fill:#12b0ff;}</style></defs><path class="b" d="M173.36,31.25c-1.86,0-3.34-.45-4.44-1.36-1.1-.91-1.65-2.12-1.65-3.63,0-1.24,.3-2.29,.91-3.16,.61-.87,1.47-1.55,2.6-2.03,1.12-.48,2.46-.72,4.02-.72,.85,0,1.69,.08,2.53,.24,.84,.16,1.62,.39,2.36,.69l.21-.93c.27-1.21,.07-2.13-.53-2.73-.61-.61-1.65-.91-3.11-.91-.66,0-1.39,.09-2.18,.28-.79,.18-1.75,.48-2.87,.89l-1.14-3.54c1.33-.53,2.59-.91,3.78-1.15,1.19-.24,2.33-.36,3.4-.36,1.81,0,3.31,.3,4.49,.89,1.18,.6,2.01,1.45,2.49,2.56,.48,1.11,.54,2.44,.21,4.01l-2.27,10.76h-4.54l.21-1.1c-.71,.44-1.43,.76-2.17,.98-.73,.22-1.5,.33-2.3,.33h0Zm-101,0c-1.51,0-2.87-.35-4.08-1.05-1.21-.7-2.15-1.65-2.84-2.87-.68-1.22-1.03-2.6-1.03-4.16,0-1.39,.26-2.71,.78-3.95,.52-1.24,1.23-2.33,2.14-3.28,.91-.94,1.96-1.69,3.14-2.23,1.18-.54,2.45-.82,3.79-.82s2.6,.31,3.83,.92c1.23,.61,2.21,1.43,2.94,2.45l-1.88,1.74c-.64-.9-1.39-1.58-2.25-2.04-.86-.46-1.8-.69-2.82-.69-.94,0-1.85,.21-2.71,.62-.86,.41-1.62,.98-2.29,1.7-.66,.72-1.18,1.55-1.56,2.48-.38,.93-.57,1.93-.57,2.99s.25,2.08,.76,2.98c.51,.9,1.19,1.61,2.06,2.13,.86,.52,1.82,.78,2.89,.78,.85,0,1.7-.17,2.53-.5,.84-.33,1.67-.8,2.5-1.42l1.24,1.84c-2.03,1.58-4.23,2.37-6.59,2.37h0Zm15.08,.04c1.35,0,2.55-.25,3.61-.74,1.06-.5,1.91-1.17,2.53-2.02,.63-.85,.94-1.81,.94-2.87,0-1.18-.37-2.13-1.1-2.85-.73-.72-1.88-1.25-3.44-1.61l-2.91-.67c-1.02-.24-1.74-.54-2.18-.92-.44-.38-.66-.9-.66-1.56,0-.9,.37-1.63,1.1-2.2,.73-.57,1.7-.85,2.91-.85,.97,0,1.94,.21,2.92,.62,.98,.41,1.91,1.01,2.78,1.79l1.56-1.7c-1.04-.95-2.16-1.65-3.35-2.11-1.19-.46-2.45-.69-3.77-.69s-2.43,.22-3.4,.67c-.97,.45-1.72,1.07-2.27,1.86-.54,.79-.82,1.73-.82,2.82,0,1.18,.35,2.14,1.06,2.87,.71,.73,1.82,1.24,3.33,1.59l2.91,.67c1.02,.24,1.75,.55,2.2,.94,.45,.39,.67,.92,.67,1.58,0,.95-.43,1.72-1.29,2.34-.86,.61-1.96,.92-3.28,.92-1.11,0-2.17-.24-3.17-.71-1-.47-1.91-1.16-2.71-2.06l-1.7,1.59c.83,1.02,1.93,1.82,3.3,2.41,1.37,.59,2.78,.89,4.22,.89h0Zm14.84,0c-1.44,0-2.85-.3-4.22-.89-1.37-.59-2.47-1.39-3.3-2.41l1.7-1.59c.8,.9,1.71,1.58,2.71,2.06,1,.47,2.06,.71,3.17,.71,1.32,0,2.42-.31,3.28-.92,.86-.61,1.29-1.39,1.29-2.34,0-.66-.22-1.19-.67-1.58-.45-.39-1.18-.7-2.2-.94l-2.91-.67c-1.51-.35-2.62-.86-3.33-1.59-.71-.73-1.06-1.69-1.06-2.87,0-1.09,.27-2.03,.82-2.82,.54-.79,1.3-1.41,2.27-1.86,.97-.45,2.1-.67,3.4-.67s2.58,.23,3.77,.69c1.19,.46,2.31,1.16,3.35,2.11l-1.56,1.7c-.87-.78-1.8-1.38-2.78-1.79-.98-.41-1.96-.62-2.92-.62-1.21,0-2.17,.28-2.91,.85-.73,.57-1.1,1.3-1.1,2.2,0,.66,.22,1.18,.66,1.56,.44,.38,1.16,.69,2.18,.92l2.91,.67c1.56,.36,2.7,.89,3.44,1.61,.73,.72,1.1,1.67,1.1,2.85,0,1.06-.31,2.02-.94,2.87-.63,.85-1.47,1.52-2.53,2.02-1.06,.5-2.27,.74-3.61,.74h0Zm8.36-.03l3.81-18.44h4.58l-3.81,18.44h-4.58Zm6.82-20.25c-.66,0-1.21-.23-1.66-.68-.44-.46-.67-1.01-.67-1.68,0-.55,.14-1.05,.41-1.5,.27-.46,.63-.82,1.08-1.08,.44-.26,.93-.39,1.45-.39,.66,0,1.21,.22,1.66,.67,.44,.44,.67,1,.67,1.66,0,.55-.14,1.04-.41,1.49-.27,.44-.63,.81-1.08,1.09-.44,.28-.93,.43-1.45,.43h0Zm-.07,20.25h4.58l2.68-12.79c.52-.55,1.07-.96,1.64-1.23,.57-.27,1.16-.41,1.78-.41,1.07,0,1.84,.36,2.31,1.08,.47,.72,.59,1.66,.36,2.82l-2.19,10.23h4.58l2.29-10.7c.05-.27,.09-.54,.12-.79,.03-.25,.06-.49,.09-.72,1.09-1.28,2.3-1.92,3.63-1.92,1.03,0,1.78,.36,2.27,1.08,.49,.72,.6,1.63,.36,2.75l-2.24,10.6h4.58l2.34-11.01c.31-1.44,.29-2.71-.09-3.81-.38-1.11-1.01-1.98-1.92-2.62-.9-.64-2.02-.96-3.37-.96-1.14,0-2.23,.24-3.28,.72s-2.02,1.2-2.91,2.15c-.43-.89-1.07-1.59-1.92-2.1-.84-.51-1.85-.77-3.01-.77-1.66,0-3.09,.24-4.48,1.36l.27-1.4h-4.58l-3.92,18.44h0Zm76.68,.03c-1.6,0-3.03-.36-4.31-1.08-1.28-.72-2.29-1.71-3.03-2.98-.74-1.27-1.11-2.7-1.11-4.29,0-1.39,.26-2.7,.77-3.93,.51-1.23,1.22-2.31,2.12-3.23,.9-.92,1.95-1.65,3.15-2.17,1.2-.52,2.47-.79,3.81-.79,1.5,0,2.9,.32,4.19,.96,1.29,.64,2.33,1.52,3.13,2.63l-3.18,2.87c-.52-.82-1.14-1.42-1.85-1.81-.71-.39-1.49-.58-2.36-.58-.71,0-1.37,.15-2,.46-.63,.31-1.19,.73-1.68,1.27-.49,.54-.87,1.15-1.13,1.85-.26,.7-.39,1.44-.39,2.24,0,.89,.19,1.68,.56,2.36,.38,.68,.9,1.22,1.56,1.61,.66,.39,1.41,.58,2.26,.58,.73,0,1.43-.15,2.1-.44,.67-.3,1.34-.74,2-1.33l2.33,3.08c-2.03,1.82-4.34,2.74-6.94,2.74h0Zm16.33-.03c-2.01,0-3.46-.48-4.34-1.44-.88-.96-1.11-2.33-.74-4.12l1.82-8.64h-3.6l.82-3.91h3.6l.96-4.56,4.84-1.06-1.2,5.62h4.97l-.82,3.91h-4.97l-1.72,7.85c-.19,.86-.07,1.49,.27,1.87,.34,.38,1.01,.57,1.99,.57,.37,0,.72-.02,1.06-.07,.34-.05,.72-.11,1.13-.21l-.82,3.81c-.41,.09-.93,.18-1.54,.26-.62,.08-1.19,.12-1.71,.12h0Zm-65.55,6.67l5.27-24.8h4.55l-.2,.92c1.3-.78,2.69-1.16,4.17-1.16s2.85,.36,4.04,1.09c1.19,.73,2.13,1.72,2.84,2.96,.71,1.24,1.06,2.64,1.06,4.19,0,1.41-.26,2.72-.77,3.93-.51,1.21-1.22,2.27-2.12,3.2-.9,.92-1.95,1.65-3.15,2.17-1.2,.52-2.49,.79-3.88,.79-1.05,0-2.03-.18-2.94-.53-.91-.35-1.71-.84-2.39-1.45l-1.88,8.69h-4.58Zm11.63-10.74c1.07,0,2.02-.25,2.86-.75,.83-.5,1.5-1.18,2-2.04,.5-.85,.75-1.81,.75-2.86,0-.89-.2-1.69-.6-2.39-.4-.71-.95-1.27-1.66-1.68-.71-.41-1.5-.62-2.39-.62-.73,0-1.41,.11-2.05,.34-.64,.23-1.22,.57-1.74,1.03l-1.47,6.94c.46,.62,1.06,1.11,1.81,1.47,.75,.36,1.58,.55,2.5,.55h0Zm18.47,.73c.64,0,1.26-.09,1.86-.26,.6-.17,1.16-.42,1.68-.74l.58-2.61c-1.19-.57-2.5-.86-3.92-.86-1.08,0-1.93,.22-2.56,.65-.63,.44-.95,1.02-.95,1.75,0,.64,.29,1.15,.88,1.51,.58,.37,1.39,.55,2.42,.55Z"></path><path class="c" d="M7.34,38.42h28.1c5.44,0,11.46-3.83,13.28-9.49,1.73-5.38,.38-10.54-5.24-10.54H13.8l1.8-5.58h28.94c19.19,0,12.55,31.19-10.06,31.19H5.54l1.8-5.58h0ZM48.46,5.58l1.8-5.58H21.32C-1.29,0-7.93,31.19,11.26,31.19h28.94l1.8-5.58H12.31c-5.62,0-6.97-5.16-5.24-10.54,1.83-5.66,7.84-9.49,13.28-9.49h28.1Z"></path></svg>